<svg xmlns="http://www.w3.org/2000/svg" xmlns:xlink="http://www.w3.org/1999/xlink" width="500" zoomAndPan="magnify" viewBox="0 0 375 374.999991" height="500" preserveAspectRatio="xMidYMid meet" version="1.0"><defs><g/><clipPath id="0861f3fbf2"><path d="M 56.183594 188.785156 L 117.4375 188.785156 L 117.4375 278.503906 L 56.183594 278.503906 Z M 56.183594 188.785156 " clip-rule="nonzero"/></clipPath><clipPath id="60ab5d4b09"><path d="M 274.097656 129.734375 L 326.59375 129.734375 L 326.59375 182.230469 L 274.097656 182.230469 Z M 274.097656 129.734375 " clip-rule="nonzero"/></clipPath><clipPath id="f923d1f2b1"><path d="M 300.347656 129.734375 C 285.851562 129.734375 274.097656 141.488281 274.097656 155.984375 C 274.097656 170.480469 285.851562 182.230469 300.347656 182.230469 C 314.84375 182.230469 326.59375 170.480469 326.59375 155.984375 C 326.59375 141.488281 314.84375 129.734375 300.347656 129.734375 Z M 300.347656 129.734375 " clip-rule="nonzero"/></clipPath><clipPath id="c4460142a3"><path d="M 231.074219 251.164062 L 283.574219 251.164062 L 283.574219 305.847656 L 231.074219 305.847656 Z M 231.074219 251.164062 " clip-rule="nonzero"/></clipPath><clipPath id="9cd98024fc"><path d="M 117.4375 53.722656 L 205.871094 53.722656 L 205.871094 100.097656 L 117.4375 100.097656 Z M 117.4375 53.722656 " clip-rule="nonzero"/></clipPath><clipPath id="ee30639d19"><path d="M 123.746094 72.425781 L 146.570312 72.425781 L 146.570312 95.246094 L 123.746094 95.246094 Z M 123.746094 72.425781 " clip-rule="nonzero"/></clipPath><clipPath id="33953aef43"><path d="M 135.160156 72.425781 C 128.855469 72.425781 123.746094 77.53125 123.746094 83.835938 C 123.746094 90.136719 128.855469 95.246094 135.160156 95.246094 C 141.460938 95.246094 146.570312 90.136719 146.570312 83.835938 C 146.570312 77.53125 141.460938 72.425781 135.160156 72.425781 Z M 135.160156 72.425781 " clip-rule="nonzero"/></clipPath></defs><g clip-path="url(#0861f3fbf2)"><path fill="#fbeb78" d="M 56.183594 188.785156 L 117.4375 188.785156 L 117.4375 278.511719 L 56.183594 278.511719 Z M 56.183594 188.785156 " fill-opacity="1" fill-rule="nonzero"/></g><g clip-path="url(#60ab5d4b09)"><g clip-path="url(#f923d1f2b1)"><path fill="#df3821" d="M 274.097656 129.734375 L 326.59375 129.734375 L 326.59375 182.230469 L 274.097656 182.230469 Z M 274.097656 129.734375 " fill-opacity="1" fill-rule="nonzero"/></g></g><g clip-path="url(#c4460142a3)"><path fill="#b9e185" d="M 231.074219 251.164062 L 283.574219 251.164062 L 283.574219 305.914062 L 231.074219 305.914062 Z M 231.074219 251.164062 " fill-opacity="1" fill-rule="nonzero"/></g><g fill="#000000" fill-opacity="1"><g transform="translate(51.895028, 180.600987)"><g><path d="M 35.578125 1.453125 C 30.390625 1.453125 25.632812 0.84375 21.3125 -0.375 C 16.988281 -1.59375 13.296875 -3.269531 10.234375 -5.40625 C 7.179688 -7.550781 4.921875 -10.003906 3.453125 -12.765625 L 14.0625 -24.203125 L 15.515625 -24.203125 C 18.046875 -20.804688 21.035156 -18.253906 24.484375 -16.546875 C 27.929688 -14.847656 31.675781 -14 35.71875 -14 C 39.445312 -14 42.253906 -14.664062 44.140625 -16 C 46.023438 -17.332031 46.96875 -19.238281 46.96875 -21.71875 C 46.96875 -23.65625 46.285156 -25.273438 44.921875 -26.578125 C 43.566406 -27.890625 41.375 -28.914062 38.34375 -29.65625 L 28.28125 -32.0625 C 20.738281 -33.851562 15.226562 -36.597656 11.75 -40.296875 C 8.28125 -44.003906 6.546875 -48.707031 6.546875 -54.40625 C 6.546875 -59.144531 7.753906 -63.257812 10.171875 -66.75 C 12.585938 -70.25 15.988281 -72.914062 20.375 -74.75 C 24.769531 -76.59375 29.882812 -77.515625 35.71875 -77.515625 C 42.570312 -77.515625 48.25 -76.523438 52.75 -74.546875 C 57.257812 -72.566406 60.78125 -69.925781 63.3125 -66.625 L 53.09375 -55.578125 L 51.71875 -55.578125 C 49.601562 -57.972656 47.222656 -59.722656 44.578125 -60.828125 C 41.941406 -61.929688 38.988281 -62.484375 35.71875 -62.484375 C 28.175781 -62.484375 24.40625 -60.140625 24.40625 -55.453125 C 24.40625 -53.472656 25.109375 -51.859375 26.515625 -50.609375 C 27.921875 -49.367188 30.390625 -48.359375 33.921875 -47.578125 L 43.3125 -45.515625 C 51.03125 -43.859375 56.671875 -41.203125 60.234375 -37.546875 C 63.796875 -33.890625 65.578125 -28.984375 65.578125 -22.828125 C 65.578125 -17.992188 64.378906 -13.738281 61.984375 -10.0625 C 59.597656 -6.382812 56.148438 -3.546875 51.640625 -1.546875 C 47.140625 0.453125 41.785156 1.453125 35.578125 1.453125 Z M 35.578125 1.453125 "/></g></g></g><g fill="#000000" fill-opacity="1"><g transform="translate(114.258616, 180.600987)"><g><path d="M 20.484375 -85.171875 C 17.035156 -85.171875 14.226562 -86.210938 12.0625 -88.296875 C 9.90625 -90.390625 8.828125 -93.09375 8.828125 -96.40625 C 8.828125 -99.675781 9.90625 -102.351562 12.0625 -104.4375 C 14.226562 -106.53125 17.035156 -107.578125 20.484375 -107.578125 C 22.785156 -107.578125 24.832031 -107.09375 26.625 -106.125 C 28.414062 -105.164062 29.804688 -103.847656 30.796875 -102.171875 C 31.785156 -100.492188 32.28125 -98.570312 32.28125 -96.40625 C 32.28125 -94.25 31.785156 -92.316406 30.796875 -90.609375 C 29.804688 -88.910156 28.414062 -87.578125 26.625 -86.609375 C 24.832031 -85.648438 22.785156 -85.171875 20.484375 -85.171875 Z M 10.96875 0 L 10.96875 -76.0625 L 30.0625 -76.0625 L 30.0625 0 Z M 10.96875 0 "/></g></g></g><g fill="#000000" fill-opacity="1"><g transform="translate(147.452077, 180.600987)"><g><path d="M 35.578125 1.453125 C 30.390625 1.453125 25.632812 0.84375 21.3125 -0.375 C 16.988281 -1.59375 13.296875 -3.269531 10.234375 -5.40625 C 7.179688 -7.550781 4.921875 -10.003906 3.453125 -12.765625 L 14.0625 -24.203125 L 15.515625 -24.203125 C 18.046875 -20.804688 21.035156 -18.253906 24.484375 -16.546875 C 27.929688 -14.847656 31.675781 -14 35.71875 -14 C 39.445312 -14 42.253906 -14.664062 44.140625 -16 C 46.023438 -17.332031 46.96875 -19.238281 46.96875 -21.71875 C 46.96875 -23.65625 46.285156 -25.273438 44.921875 -26.578125 C 43.566406 -27.890625 41.375 -28.914062 38.34375 -29.65625 L 28.28125 -32.0625 C 20.738281 -33.851562 15.226562 -36.597656 11.75 -40.296875 C 8.28125 -44.003906 6.546875 -48.707031 6.546875 -54.40625 C 6.546875 -59.144531 7.753906 -63.257812 10.171875 -66.75 C 12.585938 -70.25 15.988281 -72.914062 20.375 -74.75 C 24.769531 -76.59375 29.882812 -77.515625 35.71875 -77.515625 C 42.570312 -77.515625 48.25 -76.523438 52.75 -74.546875 C 57.257812 -72.566406 60.78125 -69.925781 63.3125 -66.625 L 53.09375 -55.578125 L 51.71875 -55.578125 C 49.601562 -57.972656 47.222656 -59.722656 44.578125 -60.828125 C 41.941406 -61.929688 38.988281 -62.484375 35.71875 -62.484375 C 28.175781 -62.484375 24.40625 -60.140625 24.40625 -55.453125 C 24.40625 -53.472656 25.109375 -51.859375 26.515625 -50.609375 C 27.921875 -49.367188 30.390625 -48.359375 33.921875 -47.578125 L 43.3125 -45.515625 C 51.03125 -43.859375 56.671875 -41.203125 60.234375 -37.546875 C 63.796875 -33.890625 65.578125 -28.984375 65.578125 -22.828125 C 65.578125 -17.992188 64.378906 -13.738281 61.984375 -10.0625 C 59.597656 -6.382812 56.148438 -3.546875 51.640625 -1.546875 C 47.140625 0.453125 41.785156 1.453125 35.578125 1.453125 Z M 35.578125 1.453125 "/></g></g></g><g fill="#000000" fill-opacity="1"><g transform="translate(209.815665, 180.600987)"><g><path d="M 34.828125 1.453125 C 26.273438 1.453125 19.960938 -0.878906 15.890625 -5.546875 C 11.828125 -10.210938 9.796875 -16.914062 9.796875 -25.65625 L 9.796875 -76.0625 L 28.890625 -76.0625 L 28.890625 -28.0625 C 28.890625 -23.425781 29.890625 -20.035156 31.890625 -17.890625 C 33.890625 -15.753906 36.984375 -14.6875 41.171875 -14.6875 C 46.453125 -14.6875 50.5625 -16.421875 53.5 -19.890625 C 56.445312 -23.367188 57.921875 -28.832031 57.921875 -36.28125 L 57.921875 -76.0625 L 77.03125 -76.0625 L 77.03125 0 L 58.6875 0 L 58.6875 -11.171875 L 57.234375 -11.515625 C 54.796875 -7.148438 51.816406 -3.894531 48.296875 -1.75 C 44.785156 0.382812 40.296875 1.453125 34.828125 1.453125 Z M 34.828125 1.453125 "/></g></g></g><g fill="#000000" fill-opacity="1"><g transform="translate(51.895028, 273.799331)"><g><path d="M 35.578125 1.453125 C 30.390625 1.453125 25.632812 0.84375 21.3125 -0.375 C 16.988281 -1.59375 13.296875 -3.269531 10.234375 -5.40625 C 7.179688 -7.550781 4.921875 -10.003906 3.453125 -12.765625 L 14.0625 -24.203125 L 15.515625 -24.203125 C 18.046875 -20.804688 21.035156 -18.253906 24.484375 -16.546875 C 27.929688 -14.847656 31.675781 -14 35.71875 -14 C 39.445312 -14 42.253906 -14.664062 44.140625 -16 C 46.023438 -17.332031 46.96875 -19.238281 46.96875 -21.71875 C 46.96875 -23.65625 46.285156 -25.273438 44.921875 -26.578125 C 43.566406 -27.890625 41.375 -28.914062 38.34375 -29.65625 L 28.28125 -32.0625 C 20.738281 -33.851562 15.226562 -36.597656 11.75 -40.296875 C 8.28125 -44.003906 6.546875 -48.707031 6.546875 -54.40625 C 6.546875 -59.144531 7.753906 -63.257812 10.171875 -66.75 C 12.585938 -70.25 15.988281 -72.914062 20.375 -74.75 C 24.769531 -76.59375 29.882812 -77.515625 35.71875 -77.515625 C 42.570312 -77.515625 48.25 -76.523438 52.75 -74.546875 C 57.257812 -72.566406 60.78125 -69.925781 63.3125 -66.625 L 53.09375 -55.578125 L 51.71875 -55.578125 C 49.601562 -57.972656 47.222656 -59.722656 44.578125 -60.828125 C 41.941406 -61.929688 38.988281 -62.484375 35.71875 -62.484375 C 28.175781 -62.484375 24.40625 -60.140625 24.40625 -55.453125 C 24.40625 -53.472656 25.109375 -51.859375 26.515625 -50.609375 C 27.921875 -49.367188 30.390625 -48.359375 33.921875 -47.578125 L 43.3125 -45.515625 C 51.03125 -43.859375 56.671875 -41.203125 60.234375 -37.546875 C 63.796875 -33.890625 65.578125 -28.984375 65.578125 -22.828125 C 65.578125 -17.992188 64.378906 -13.738281 61.984375 -10.0625 C 59.597656 -6.382812 56.148438 -3.546875 51.640625 -1.546875 C 47.140625 0.453125 41.785156 1.453125 35.578125 1.453125 Z M 35.578125 1.453125 "/></g></g></g><g fill="#000000" fill-opacity="1"><g transform="translate(114.258616, 273.799331)"><g><path d="M 29.65625 1.453125 C 24.78125 1.453125 20.546875 0.554688 16.953125 -1.234375 C 13.367188 -3.035156 10.613281 -5.671875 8.6875 -9.140625 C 6.757812 -12.609375 5.796875 -16.78125 5.796875 -21.65625 C 5.796875 -26.15625 6.757812 -29.929688 8.6875 -32.984375 C 10.613281 -36.046875 13.597656 -38.554688 17.640625 -40.515625 C 21.691406 -42.472656 26.984375 -43.976562 33.515625 -45.03125 C 38.066406 -45.769531 41.523438 -46.570312 43.890625 -47.4375 C 46.265625 -48.3125 47.863281 -49.300781 48.6875 -50.40625 C 49.507812 -51.507812 49.921875 -52.914062 49.921875 -54.625 C 49.921875 -57.050781 49.070312 -58.910156 47.375 -60.203125 C 45.675781 -61.492188 42.847656 -62.140625 38.890625 -62.140625 C 34.660156 -62.140625 30.640625 -61.195312 26.828125 -59.3125 C 23.015625 -57.425781 19.703125 -54.941406 16.890625 -51.859375 L 15.515625 -51.859375 L 7.515625 -63.921875 C 11.378906 -68.203125 16.09375 -71.535156 21.65625 -73.921875 C 27.21875 -76.316406 33.285156 -77.515625 39.859375 -77.515625 C 49.929688 -77.515625 57.21875 -75.375 61.71875 -71.09375 C 66.226562 -66.820312 68.484375 -60.753906 68.484375 -52.890625 L 68.484375 -19.859375 C 68.484375 -16.460938 69.976562 -14.765625 72.96875 -14.765625 C 74.113281 -14.765625 75.238281 -14.96875 76.34375 -15.375 L 77.3125 -15.109375 L 78.6875 -1.796875 C 77.625 -1.109375 76.148438 -0.546875 74.265625 -0.109375 C 72.378906 0.328125 70.3125 0.546875 68.0625 0.546875 C 63.507812 0.546875 59.957031 -0.320312 57.40625 -2.0625 C 54.851562 -3.8125 53.023438 -6.550781 51.921875 -10.28125 L 50.484375 -10.40625 C 46.753906 -2.5 39.8125 1.453125 29.65625 1.453125 Z M 35.71875 -12.828125 C 40.132812 -12.828125 43.660156 -14.304688 46.296875 -17.265625 C 48.941406 -20.234375 50.265625 -24.363281 50.265625 -29.65625 L 50.265625 -37.375 L 48.96875 -37.65625 C 47.8125 -36.738281 46.300781 -35.96875 44.4375 -35.34375 C 42.582031 -34.71875 39.90625 -34.109375 36.40625 -33.515625 C 32.269531 -32.828125 29.289062 -31.644531 27.46875 -29.96875 C 25.65625 -28.289062 24.75 -25.910156 24.75 -22.828125 C 24.75 -19.566406 25.710938 -17.082031 27.640625 -15.375 C 29.578125 -13.675781 32.269531 -12.828125 35.71875 -12.828125 Z M 35.71875 -12.828125 "/></g></g></g><g fill="#000000" fill-opacity="1"><g transform="translate(186.690376, 273.799331)"><g><path d="M 16.828125 32.28125 C 13.566406 32.28125 10.613281 32.023438 7.96875 31.515625 C 5.320312 31.003906 3.171875 30.335938 1.515625 29.515625 L 4.546875 14.0625 L 5.796875 13.65625 C 6.941406 14.25 8.363281 14.726562 10.0625 15.09375 C 11.769531 15.46875 13.519531 15.65625 15.3125 15.65625 C 18.394531 15.65625 20.957031 15.25 23 14.4375 C 25.039062 13.632812 26.773438 12.300781 28.203125 10.4375 C 29.628906 8.582031 30.894531 6 32 2.6875 L 1.65625 -76.0625 L 21.65625 -76.0625 L 40.546875 -23.171875 L 42.203125 -23.171875 L 60.625 -76.0625 L 80.0625 -76.0625 L 49.515625 4.765625 C 47.078125 11.285156 44.398438 16.535156 41.484375 20.515625 C 38.566406 24.492188 35.117188 27.445312 31.140625 29.375 C 27.160156 31.3125 22.390625 32.28125 16.828125 32.28125 Z M 16.828125 32.28125 "/></g></g></g><g fill="#000000" fill-opacity="1"><g transform="translate(260.570286, 273.799331)"><g><path d="M 35.578125 1.453125 C 30.390625 1.453125 25.632812 0.84375 21.3125 -0.375 C 16.988281 -1.59375 13.296875 -3.269531 10.234375 -5.40625 C 7.179688 -7.550781 4.921875 -10.003906 3.453125 -12.765625 L 14.0625 -24.203125 L 15.515625 -24.203125 C 18.046875 -20.804688 21.035156 -18.253906 24.484375 -16.546875 C 27.929688 -14.847656 31.675781 -14 35.71875 -14 C 39.445312 -14 42.253906 -14.664062 44.140625 -16 C 46.023438 -17.332031 46.96875 -19.238281 46.96875 -21.71875 C 46.96875 -23.65625 46.285156 -25.273438 44.921875 -26.578125 C 43.566406 -27.890625 41.375 -28.914062 38.34375 -29.65625 L 28.28125 -32.0625 C 20.738281 -33.851562 15.226562 -36.597656 11.75 -40.296875 C 8.28125 -44.003906 6.546875 -48.707031 6.546875 -54.40625 C 6.546875 -59.144531 7.753906 -63.257812 10.171875 -66.75 C 12.585938 -70.25 15.988281 -72.914062 20.375 -74.75 C 24.769531 -76.59375 29.882812 -77.515625 35.71875 -77.515625 C 42.570312 -77.515625 48.25 -76.523438 52.75 -74.546875 C 57.257812 -72.566406 60.78125 -69.925781 63.3125 -66.625 L 53.09375 -55.578125 L 51.71875 -55.578125 C 49.601562 -57.972656 47.222656 -59.722656 44.578125 -60.828125 C 41.941406 -61.929688 38.988281 -62.484375 35.71875 -62.484375 C 28.175781 -62.484375 24.40625 -60.140625 24.40625 -55.453125 C 24.40625 -53.472656 25.109375 -51.859375 26.515625 -50.609375 C 27.921875 -49.367188 30.390625 -48.359375 33.921875 -47.578125 L 43.3125 -45.515625 C 51.03125 -43.859375 56.671875 -41.203125 60.234375 -37.546875 C 63.796875 -33.890625 65.578125 -28.984375 65.578125 -22.828125 C 65.578125 -17.992188 64.378906 -13.738281 61.984375 -10.0625 C 59.597656 -6.382812 56.148438 -3.546875 51.640625 -1.546875 C 47.140625 0.453125 41.785156 1.453125 35.578125 1.453125 Z M 35.578125 1.453125 "/></g></g></g><g clip-path="url(#9cd98024fc)"><path fill="#ffffff" d="M 117.4375 53.722656 L 205.839844 53.722656 L 205.839844 100.097656 L 117.4375 100.097656 Z M 117.4375 53.722656 " fill-opacity="1" fill-rule="nonzero"/></g><g clip-path="url(#ee30639d19)"><g clip-path="url(#33953aef43)"><path fill="#648dcb" d="M 123.746094 72.425781 L 146.570312 72.425781 L 146.570312 95.246094 L 123.746094 95.246094 Z M 123.746094 72.425781 " fill-opacity="1" fill-rule="nonzero"/></g></g></svg>
